P3
4 4
255
127
0
0
127
0
123
93
0
127
0
0
127
72
42
0
0
0
0
79
3
51
0
110
44
127
75
0
49
46
42
127
127
127
0
127
99
127
123
0
107
105
44
51
64
18
0
127
0
